<svg xmlns="http://www.w3.org/2000/svg" width="900" height="900" viewBox="0 0 900 900" role="img" aria-labelledby="title desc" font-family="Inter, -apple-system, 'Segoe UI', sans-serif">
  <title id="title">Mobile shell — Inbox and open wave (390×844, side-by-side)</title>
  <desc id="desc">Two mobile frames at 390×844 each. Left: Inbox folder list collapsed into a sticky top bar plus filter chip strip and a vertical list of digest cards. Right: open wave with back-to-inbox affordance, wave header, threaded reading, mobile compose dock at the bottom.</desc>
  <defs>
    <linearGradient id="page-bg" x1="0" y1="0" x2="0" y2="1">
      <stop offset="0%" stop-color="#f6f7fb"/>
      <stop offset="100%" stop-color="#eef1f7"/>
    </linearGradient>
    <filter id="phone-shadow" x="-10%" y="-10%" width="120%" height="120%">
      <feDropShadow dx="0" dy="20" stdDeviation="24" flood-color="#0b1320" flood-opacity="0.15"/>
    </filter>
    <symbol id="supawave-mark" viewBox="0 0 48 48">
      <circle cx="24" cy="24" r="24" fill="#0a4f82"/>
      <path d="M8 28 Q14 16 20 28 Q24 36 28 28 Q34 16 40 28" stroke="#ffffff" stroke-width="4" stroke-linecap="round" fill="none"/>
      <circle cx="24" cy="18" r="3.5" fill="#ffd166"/>
    </symbol>
  </defs>

  <rect width="900" height="900" fill="url(#page-bg)"/>
  <text x="450" y="32" text-anchor="middle" font-size="13" font-weight="700" fill="#0b1320" font-family="'Space Grotesk', Inter, sans-serif">Mobile · 390 × 844 · Inbox + open wave</text>

  <!-- ============ LEFT PHONE: Inbox ============ -->
  <g transform="translate(40,40)" filter="url(#phone-shadow)">
    <rect width="390" height="844" rx="44" fill="#0b1320"/>
    <rect x="8" y="8" width="374" height="828" rx="36" fill="#ffffff"/>

    <!-- notch -->
    <rect x="155" y="10" width="80" height="22" rx="11" fill="#0b1320"/>

    <g transform="translate(8,40)">
      <!-- Status bar -->
      <text x="20" y="14" font-size="10" font-weight="600" fill="#0b1320" font-family="Geist, Inter, sans-serif">9:41</text>
      <text x="354" y="14" text-anchor="end" font-size="10" font-weight="600" fill="#0b1320" font-family="Geist, Inter, sans-serif">100%</text>

      <!-- App header -->
      <g transform="translate(0,28)">
        <rect width="374" height="56" fill="#ffffff"/>
        <use href="#supawave-mark" x="16" y="10" width="32" height="32"/>
        <text x="56" y="32" font-size="14" font-weight="700" fill="#0b1320" font-family="'Space Grotesk', Inter, sans-serif">SupaWave</text>
        <rect x="306" y="14" width="52" height="28" rx="14" fill="#22d3ee"/>
        <text x="332" y="33" text-anchor="middle" font-size="11" font-weight="700" fill="#0b1320">+ New</text>
      </g>

      <!-- Folder pill scroll (saved searches) -->
      <g transform="translate(0,96)">
        <rect x="12" y="0" width="62" height="32" rx="16" fill="#0b1320"/>
        <text x="43" y="20" text-anchor="middle" font-size="12" font-weight="600" fill="#ffffff">Inbox</text>
        <text x="63" y="20" text-anchor="middle" font-size="10" fill="rgba(255,255,255,0.62)" font-family="Geist, Inter, sans-serif"></text>
        <rect x="80" y="0" width="84" height="32" rx="16" fill="#ffffff" stroke="rgba(11,19,32,0.10)"/>
        <text x="118" y="20" text-anchor="middle" font-size="12" fill="#0b1320">Mentions</text>
        <circle cx="148" cy="10" r="4" fill="#7c3aed"/>
        <rect x="170" y="0" width="68" height="32" rx="16" fill="#ffffff" stroke="rgba(11,19,32,0.10)"/>
        <text x="200" y="20" text-anchor="middle" font-size="12" fill="#0b1320">Tasks</text>
        <rect x="218" y="6" width="20" height="20" rx="10" fill="rgba(251,146,60,0.22)"/>
        <text x="228" y="20" text-anchor="middle" font-size="10" font-weight="700" fill="#7a3a06">5</text>
        <rect x="244" y="0" width="62" height="32" rx="16" fill="#ffffff" stroke="rgba(11,19,32,0.10)"/>
        <text x="275" y="20" text-anchor="middle" font-size="12" fill="#0b1320">Public</text>
        <rect x="312" y="0" width="60" height="32" rx="16" fill="#ffffff" stroke="rgba(11,19,32,0.10)"/>
        <text x="342" y="20" text-anchor="middle" font-size="12" fill="#0b1320">Pinned</text>
      </g>

      <!-- Filter chip row -->
      <g transform="translate(12,140)">
        <rect width="84" height="26" rx="13" fill="#0b1320"/>
        <text x="42" y="17" text-anchor="middle" font-size="10" font-weight="600" fill="#ffffff">Unread only</text>
        <rect x="92" y="0" width="92" height="26" rx="13" fill="#ffffff" stroke="rgba(11,19,32,0.10)"/>
        <text x="138" y="17" text-anchor="middle" font-size="10" fill="#0b1320">Attachments</text>
        <rect x="188" y="0" width="64" height="26" rx="13" fill="#ffffff" stroke="rgba(11,19,32,0.10)"/>
        <text x="220" y="17" text-anchor="middle" font-size="10" fill="#0b1320">From me</text>
        <rect x="256" y="0" width="62" height="26" rx="13" fill="#ffffff" stroke="rgba(11,19,32,0.10)"/>
        <text x="287" y="17" text-anchor="middle" font-size="10" fill="#0b1320">Has task</text>
      </g>

      <line x1="12" y1="180" x2="362" y2="180" stroke="rgba(11,19,32,0.10)"/>

      <text x="12" y="200" font-size="10" font-weight="600" fill="rgba(11,19,32,0.55)" font-family="Geist, Inter, sans-serif" letter-spacing="0.08em">12 UNREAD WAVES</text>

      <!-- Card 1 -->
      <g transform="translate(12,210)">
        <rect width="350" height="116" rx="12" fill="#ffffff" stroke="#22d3ee" stroke-width="1.5"/>
        <circle cx="22" cy="22" r="14" fill="#22d3ee"/>
        <text x="22" y="27" text-anchor="middle" font-size="10" font-weight="700" fill="#0b1320">AT</text>
        <circle cx="38" cy="22" r="14" fill="#7c3aed"/>
        <text x="38" y="27" text-anchor="middle" font-size="10" font-weight="700" fill="#ffffff">SK</text>
        <circle cx="54" cy="22" r="14" fill="#fb923c"/>
        <text x="54" y="27" text-anchor="middle" font-size="10" font-weight="700" fill="#0b1320">MR</text>
        <text x="80" y="20" font-size="11" fill="rgba(11,19,32,0.55)" font-family="Geist, Inter, sans-serif">5 participants</text>
        <text x="280" y="20" font-size="10" fill="rgba(11,19,32,0.55)" font-family="Geist, Inter, sans-serif">2 min</text>
        <text x="12" y="56" font-size="13" font-weight="700" fill="#0b1320">Robot streaming follow-up</text>
        <text x="12" y="74" font-size="11" fill="rgba(11,19,32,0.62)">Sasha: I bumped the retry budget but we still see</text>
        <text x="12" y="88" font-size="11" fill="rgba(11,19,32,0.62)">backoff after five consecutive 502s on prod-2.</text>
        <rect x="12" y="98" width="40" height="18" rx="9" fill="rgba(34,211,238,0.18)"/>
        <text x="32" y="111" text-anchor="middle" font-size="10" font-weight="700" fill="#0b1320">3 new</text>
        <text x="58" y="111" font-size="10" fill="rgba(11,19,32,0.55)" font-family="Geist, Inter, sans-serif">· 18 blips</text>
        <circle cx="338" cy="14" r="5" fill="#22d3ee"/>
      </g>

      <!-- Card 2 -->
      <g transform="translate(12,338)">
        <rect width="350" height="100" rx="12" fill="#ffffff" stroke="rgba(11,19,32,0.10)"/>
        <circle cx="22" cy="22" r="14" fill="#7c3aed"/>
        <text x="22" y="27" text-anchor="middle" font-size="10" font-weight="700" fill="#ffffff">YZ</text>
        <text x="44" y="20" font-size="11" fill="rgba(11,19,32,0.55)" font-family="Geist, Inter, sans-serif">2 participants</text>
        <text x="280" y="20" font-size="10" fill="rgba(11,19,32,0.55)" font-family="Geist, Inter, sans-serif">14 min</text>
        <text x="12" y="56" font-size="13" font-weight="700" fill="#0b1320">Lucene startup reuse — review</text>
        <text x="12" y="74" font-size="11" fill="rgba(11,19,32,0.62)">Dan: design memo updated with the index-stamp invariant.</text>
        <rect x="12" y="84" width="40" height="14" rx="7" fill="rgba(34,211,238,0.18)"/>
        <text x="32" y="94" text-anchor="middle" font-size="9" font-weight="700" fill="#0b1320">1 new</text>
        <rect x="58" y="84" width="32" height="14" rx="7" fill="rgba(124,58,237,0.22)"/>
        <text x="74" y="94" text-anchor="middle" font-size="9" font-weight="600" fill="#3a1280">@you</text>
      </g>

      <!-- Card 3 -->
      <g transform="translate(12,450)">
        <rect width="350" height="100" rx="12" fill="#ffffff" stroke="rgba(11,19,32,0.10)"/>
        <circle cx="22" cy="22" r="14" fill="#fb923c"/>
        <text x="22" y="27" text-anchor="middle" font-size="10" font-weight="700" fill="#0b1320">MR</text>
        <text x="44" y="20" font-size="11" fill="rgba(11,19,32,0.55)" font-family="Geist, Inter, sans-serif">Marina R.</text>
        <text x="280" y="20" font-size="10" fill="rgba(11,19,32,0.55)" font-family="Geist, Inter, sans-serif">42 min</text>
        <text x="12" y="56" font-size="13" font-weight="700" fill="#0b1320">Sprint 18 retro</text>
        <text x="12" y="74" font-size="11" fill="rgba(11,19,32,0.62)">Tasks rolled forward. Two carryovers from F-3.</text>
        <rect x="12" y="84" width="44" height="14" rx="7" fill="rgba(251,146,60,0.22)"/>
        <text x="34" y="94" text-anchor="middle" font-size="9" font-weight="700" fill="#7a3a06">2 task</text>
      </g>

      <!-- Card 4 -->
      <g transform="translate(12,562)" opacity="0.78">
        <rect width="350" height="84" rx="12" fill="#ffffff" stroke="rgba(11,19,32,0.10)"/>
        <circle cx="22" cy="22" r="14" fill="#22d3ee"/>
        <text x="22" y="27" text-anchor="middle" font-size="10" font-weight="700" fill="#0b1320">AT</text>
        <text x="280" y="20" font-size="10" fill="rgba(11,19,32,0.55)" font-family="Geist, Inter, sans-serif">2 hr</text>
        <text x="44" y="20" font-size="11" fill="rgba(11,19,32,0.55)" font-family="Geist, Inter, sans-serif">Anton T.</text>
        <text x="12" y="56" font-size="13" font-weight="600" fill="#0b1320">Onboarding flow polish</text>
        <text x="12" y="74" font-size="11" fill="rgba(11,19,32,0.62)">All read · 4 blips</text>
      </g>

      <!-- Card 5 -->
      <g transform="translate(12,658)">
        <rect width="350" height="84" rx="12" fill="#ffffff" stroke="rgba(11,19,32,0.10)"/>
        <circle cx="22" cy="22" r="14" fill="#475569"/>
        <text x="22" y="27" text-anchor="middle" font-size="10" font-weight="700" fill="#ffffff">DK</text>
        <text x="44" y="20" font-size="11" fill="rgba(11,19,32,0.55)" font-family="Geist, Inter, sans-serif">Dan K.</text>
        <text x="280" y="20" font-size="10" fill="rgba(11,19,32,0.55)" font-family="Geist, Inter, sans-serif">5 hr</text>
        <text x="12" y="56" font-size="13" font-weight="700" fill="#0b1320">Grafana INP regression</text>
        <text x="12" y="74" font-size="11" fill="rgba(11,19,32,0.62)">p75 INP +18% on j2cl-root since Tuesday.</text>
      </g>
    </g>

    <!-- bottom tab bar -->
    <g transform="translate(8,772)">
      <rect width="374" height="56" fill="#ffffff" stroke="rgba(11,19,32,0.10)"/>
      <g font-family="Geist, Inter, sans-serif" font-size="10" text-anchor="middle">
        <g transform="translate(46,8)">
          <rect width="56" height="40" rx="10" fill="rgba(34,211,238,0.18)"/>
          <text x="28" y="18" font-size="14" fill="#0b1320">📥</text>
          <text x="28" y="34" font-weight="700" fill="#0b1320">Inbox</text>
        </g>
        <g transform="translate(118,8)">
          <text x="28" y="18" font-size="14" fill="#0b1320">@</text>
          <text x="28" y="34" fill="rgba(11,19,32,0.62)">Mentions</text>
        </g>
        <g transform="translate(190,8)">
          <text x="28" y="18" font-size="14" fill="#0b1320">✓</text>
          <text x="28" y="34" fill="rgba(11,19,32,0.62)">Tasks</text>
        </g>
        <g transform="translate(262,8)">
          <text x="28" y="18" font-size="14" fill="#0b1320">📌</text>
          <text x="28" y="34" fill="rgba(11,19,32,0.62)">Pinned</text>
        </g>
      </g>
    </g>
  </g>

  <text x="235" y="900" text-anchor="middle" font-size="11" fill="rgba(11,19,32,0.55)" font-family="Geist, Inter, sans-serif">Inbox · J-UI-1 / J-UI-2</text>

  <!-- ============ RIGHT PHONE: Open wave ============ -->
  <g transform="translate(470,40)" filter="url(#phone-shadow)">
    <rect width="390" height="844" rx="44" fill="#0b1320"/>
    <rect x="8" y="8" width="374" height="828" rx="36" fill="#ffffff"/>

    <!-- notch -->
    <rect x="155" y="10" width="80" height="22" rx="11" fill="#0b1320"/>

    <g transform="translate(8,40)">
      <text x="20" y="14" font-size="10" font-weight="600" fill="#0b1320" font-family="Geist, Inter, sans-serif">9:41</text>
      <text x="354" y="14" text-anchor="end" font-size="10" font-weight="600" fill="#0b1320" font-family="Geist, Inter, sans-serif">100%</text>

      <!-- back-to-inbox bar -->
      <g transform="translate(0,28)">
        <rect width="374" height="48" fill="#ffffff" stroke="rgba(11,19,32,0.10)"/>
        <text x="16" y="30" font-size="13" font-weight="700" fill="#0b1320">‹ Inbox</text>
        <text x="187" y="30" text-anchor="middle" font-size="13" font-weight="700" fill="#0b1320">Wave</text>
        <text x="358" y="30" text-anchor="end" font-size="14" fill="#0b1320">⋯</text>
      </g>

      <!-- wave header -->
      <g transform="translate(16,84)">
        <text x="0" y="14" font-size="10" font-weight="600" fill="rgba(11,19,32,0.55)" font-family="Geist, Inter, sans-serif" letter-spacing="0.08em">WAVE · 7c4a91 · 2 MIN AGO</text>
        <text x="0" y="36" font-size="16" font-weight="700" fill="#0b1320" font-family="'Space Grotesk', Inter, sans-serif">Robot streaming follow-up — 4xx retries</text>
        <g transform="translate(0,48)">
          <circle cx="12" cy="12" r="12" fill="#22d3ee"/>
          <text x="12" y="16" text-anchor="middle" font-size="10" font-weight="700" fill="#0b1320">AT</text>
          <circle cx="26" cy="12" r="12" fill="#7c3aed"/>
          <text x="26" y="16" text-anchor="middle" font-size="10" font-weight="700" fill="#ffffff">SK</text>
          <circle cx="40" cy="12" r="12" fill="#fb923c"/>
          <text x="40" y="16" text-anchor="middle" font-size="10" font-weight="700" fill="#0b1320">MR</text>
          <circle cx="54" cy="12" r="12" fill="#475569"/>
          <text x="54" y="16" text-anchor="middle" font-size="10" font-weight="700" fill="#ffffff">DK</text>
          <text x="76" y="16" font-size="11" fill="rgba(11,19,32,0.55)" font-family="Geist, Inter, sans-serif">+ Yuri · 5 total</text>
        </g>

        <!-- Action chips -->
        <g transform="translate(0,86)">
          <rect width="58" height="26" rx="13" fill="#0b1320"/>
          <text x="29" y="17" text-anchor="middle" font-size="11" font-weight="600" fill="#ffffff">Reply</text>
          <rect x="66" y="0" width="48" height="26" rx="13" fill="#ffffff" stroke="rgba(11,19,32,0.10)"/>
          <text x="90" y="17" text-anchor="middle" font-size="11" fill="#0b1320">Pin</text>
          <rect x="122" y="0" width="62" height="26" rx="13" fill="#ffffff" stroke="rgba(11,19,32,0.10)"/>
          <text x="153" y="17" text-anchor="middle" font-size="11" fill="#0b1320">Archive</text>
          <rect x="192" y="0" width="46" height="26" rx="13" fill="#ffffff" stroke="rgba(11,19,32,0.10)"/>
          <text x="215" y="17" text-anchor="middle" font-size="11" fill="#0b1320">Tags</text>
        </g>
      </g>

      <line x1="0" y1="220" x2="374" y2="220" stroke="rgba(11,19,32,0.10)"/>

      <!-- Threaded blips -->
      <g transform="translate(16,236)">
        <!-- Root -->
        <circle cx="14" cy="14" r="14" fill="#22d3ee"/>
        <text x="14" y="18" text-anchor="middle" font-size="11" font-weight="700" fill="#0b1320">AT</text>
        <text x="36" y="14" font-size="12" font-weight="700" fill="#0b1320">Anton T.</text>
        <text x="100" y="14" font-size="10" fill="rgba(11,19,32,0.55)" font-family="Geist, Inter, sans-serif">2 hr</text>
        <text x="36" y="32" font-size="12" fill="rgba(11,19,32,0.92)">Sasha — what's the actual retry</text>
        <text x="36" y="48" font-size="12" fill="rgba(11,19,32,0.92)">budget after the F-3 cleanup?</text>

        <!-- Reply 1 (indent) -->
        <g transform="translate(20,72)" stroke="rgba(34,211,238,0.30)" stroke-width="2" fill="none">
          <line x1="0" y1="-12" x2="0" y2="60"/>
        </g>
        <g transform="translate(28,68)">
          <circle cx="12" cy="12" r="12" fill="#7c3aed"/>
          <text x="12" y="16" text-anchor="middle" font-size="10" font-weight="700" fill="#ffffff">SK</text>
          <text x="30" y="14" font-size="11" font-weight="700" fill="#0b1320">Sasha K.</text>
          <text x="84" y="14" font-size="10" fill="rgba(11,19,32,0.55)" font-family="Geist, Inter, sans-serif">1 hr</text>
          <text x="30" y="32" font-size="11" fill="rgba(11,19,32,0.92)">Budget is 3 retries. Outer fetch</text>
          <text x="30" y="46" font-size="11" fill="rgba(11,19,32,0.92)">should not retry — ID please?</text>
        </g>

        <!-- Reply 2 (indent 2) WITH FOCUS -->
        <g transform="translate(60,140)">
          <rect x="-8" y="-6" width="280" height="64" rx="10" fill="#fafbfd" stroke="#22d3ee" stroke-width="2"/>
          <circle cx="12" cy="12" r="12" fill="#fb923c"/>
          <text x="12" y="16" text-anchor="middle" font-size="10" font-weight="700" fill="#0b1320">MR</text>
          <text x="30" y="14" font-size="11" font-weight="700" fill="#0b1320">Marina R.</text>
          <text x="100" y="14" font-size="10" fill="rgba(11,19,32,0.55)" font-family="Geist, Inter, sans-serif">42 min</text>
          <text x="30" y="32" font-size="11" fill="rgba(11,19,32,0.92)">request-id 6f1a-7cc4: outer fetch</text>
          <text x="30" y="46" font-size="11" fill="rgba(11,19,32,0.92)">retried twice + handler 3 = 5.</text>
        </g>

        <!-- Reply 3 -->
        <g transform="translate(28,222)">
          <text x="-22" y="14" font-size="11" fill="rgba(11,19,32,0.55)" font-family="Geist, Inter, sans-serif">▸</text>
          <circle cx="12" cy="12" r="12" fill="#475569"/>
          <text x="12" y="16" text-anchor="middle" font-size="10" font-weight="700" fill="#ffffff">DK</text>
          <text x="30" y="14" font-size="11" font-weight="700" fill="#0b1320">Dan K.</text>
          <rect x="78" y="2" width="38" height="14" rx="7" fill="#22d3ee"/>
          <text x="97" y="13" text-anchor="middle" font-size="9" font-weight="700" fill="#0b1320">NEW</text>
          <text x="124" y="14" font-size="10" fill="rgba(11,19,32,0.55)" font-family="Geist, Inter, sans-serif">2 min</text>
          <text x="30" y="32" font-size="11" fill="rgba(11,19,32,0.92)">Confirmed on staging-3 too. 3 collapsed.</text>
        </g>

        <!-- Task affordance summary -->
        <g transform="translate(0,280)">
          <rect width="342" height="44" rx="10" fill="rgba(251,146,60,0.16)" stroke="rgba(251,146,60,0.40)"/>
          <rect x="6" y="6" width="32" height="32" rx="6" fill="rgba(251,146,60,0.22)"/>
          <text x="22" y="27" text-anchor="middle" font-size="14" fill="#7a3a06">⚑</text>
          <text x="46" y="20" font-size="11" font-weight="700" fill="#0b1320">1 task active in this wave</text>
          <text x="46" y="34" font-size="10" fill="rgba(11,19,32,0.55)" font-family="Geist, Inter, sans-serif">@sasha · due Fri Apr 30</text>
        </g>
      </g>

      <!-- floating "↓ 3 new" pill -->
      <g transform="translate(106,648)">
        <rect width="160" height="32" rx="16" fill="#22d3ee"/>
        <text x="80" y="20" text-anchor="middle" font-size="11" font-weight="700" fill="#0b1320">↓ 3 new blips below</text>
      </g>

      <!-- compose dock -->
      <g transform="translate(0,704)">
        <rect width="374" height="68" fill="#ffffff" stroke="rgba(11,19,32,0.10)"/>
        <rect x="12" y="12" width="280" height="44" rx="22" fill="#fafbfd" stroke="rgba(11,19,32,0.10)"/>
        <text x="28" y="38" font-size="12" fill="rgba(11,19,32,0.55)">Reply to wave…</text>
        <text x="270" y="38" font-size="13" fill="#0b1320">📎</text>
        <rect x="304" y="12" width="56" height="44" rx="22" fill="#22d3ee"/>
        <text x="332" y="40" text-anchor="middle" font-size="14" font-weight="700" fill="#0b1320">↑</text>
      </g>
    </g>
  </g>

  <text x="665" y="900" text-anchor="middle" font-size="11" fill="rgba(11,19,32,0.55)" font-family="Geist, Inter, sans-serif">Open wave · J-UI-4 / J-UI-5 / J-UI-6</text>
</svg>
