<svg xmlns="http://www.w3.org/2000/svg" width="1440" height="900" viewBox="0 0 1440 900" role="img" aria-labelledby="title desc" font-family="Inter, -apple-system, 'Segoe UI', sans-serif">
  <title id="title">Dark mode shell — Wavy Firefly Signal default</title>
  <desc id="desc">Same shell as #1 in the dark variant from j2cl/lit/src/design/wavy-tokens.css. Bg #0b1320, surface #11192a, hairline cyan border. Cyan, violet, amber accents preserved. Saved-search rail, filter chips, six digest cards, wave panel header.</desc>
  <defs>
    <filter id="dark-card-shadow" x="-5%" y="-10%" width="110%" height="120%">
      <feDropShadow dx="0" dy="4" stdDeviation="6" flood-color="#000000" flood-opacity="0.40"/>
    </filter>
    <filter id="cyan-glow" x="-20%" y="-40%" width="140%" height="180%">
      <feDropShadow dx="0" dy="0" stdDeviation="8" flood-color="#22d3ee" flood-opacity="0.45"/>
    </filter>
    <symbol id="supawave-mark" viewBox="0 0 48 48">
      <circle cx="24" cy="24" r="24" fill="#0a4f82"/>
      <path d="M8 28 Q14 16 20 28 Q24 36 28 28 Q34 16 40 28" stroke="#22d3ee" stroke-width="4" stroke-linecap="round" fill="none"/>
      <circle cx="24" cy="18" r="3.5" fill="#ffd166"/>
    </symbol>
  </defs>

  <!-- bg-base -->
  <rect width="1440" height="900" fill="#0b1320"/>

  <!-- subtle aurora gradient for atmosphere -->
  <defs>
    <radialGradient id="aurora" cx="50%" cy="0%" r="80%">
      <stop offset="0%" stop-color="rgba(124,58,237,0.18)"/>
      <stop offset="60%" stop-color="rgba(11,19,32,0)"/>
    </radialGradient>
  </defs>
  <rect width="1440" height="900" fill="url(#aurora)"/>

  <!-- Header -->
  <g>
    <rect x="0" y="0" width="1440" height="64" fill="#11192a" stroke="rgba(34,211,238,0.18)"/>
    <use href="#supawave-mark" x="20" y="14" width="36" height="36"/>
    <text x="64" y="40" font-size="20" font-weight="700" fill="rgba(232,240,255,0.92)" font-family="'Space Grotesk', Inter, sans-serif">SupaWave</text>
    <text x="64" y="54" font-size="11" fill="rgba(232,240,255,0.42)" font-family="Geist, Inter, sans-serif" letter-spacing="0.08em">J2CL · /?view=j2cl-root · DARK</text>

    <!-- Search -->
    <rect x="420" y="16" width="600" height="32" rx="16" fill="#0b1320" stroke="rgba(34,211,238,0.18)"/>
    <circle cx="440" cy="32" r="6" fill="none" stroke="rgba(232,240,255,0.62)" stroke-width="1.5"/>
    <line x1="445" y1="37" x2="450" y2="42" stroke="rgba(232,240,255,0.62)" stroke-width="1.5"/>
    <text x="460" y="36" font-size="13" fill="rgba(232,240,255,0.62)">Search waves, blips, tags…</text>
    <text x="990" y="35" font-size="11" font-family="Geist, Inter, sans-serif" fill="rgba(232,240,255,0.42)">⌘K</text>

    <rect x="1248" y="16" width="84" height="32" rx="16" fill="#22d3ee" filter="url(#cyan-glow)"/>
    <text x="1290" y="36" text-anchor="middle" font-size="13" font-weight="600" fill="#0b1320">+ New Wave</text>
    <circle cx="1368" cy="32" r="16" fill="#7c3aed"/>
    <text x="1368" y="37" text-anchor="middle" font-size="12" font-weight="700" fill="#ffffff">YZ</text>
  </g>

  <!-- Nav rail -->
  <g transform="translate(0,64)">
    <rect x="0" y="0" width="296" height="836" fill="#11192a" stroke="rgba(34,211,238,0.18)"/>

    <text x="20" y="32" font-size="11" font-weight="600" fill="rgba(232,240,255,0.62)" font-family="Geist, Inter, sans-serif" letter-spacing="0.08em">SAVED SEARCHES</text>

    <!-- Inbox active with cyan rail -->
    <rect x="12" y="44" width="272" height="40" rx="12" fill="rgba(34,211,238,0.22)"/>
    <rect x="12" y="44" width="3" height="40" rx="2" fill="#22d3ee"/>
    <text x="32" y="69" font-size="14" font-weight="600" fill="rgba(232,240,255,0.92)">Inbox</text>
    <rect x="232" y="56" width="40" height="20" rx="10" fill="#22d3ee"/>
    <text x="252" y="70" text-anchor="middle" font-size="11" font-weight="700" fill="#0b1320">12</text>

    <text x="32" y="113" font-size="14" fill="rgba(232,240,255,0.92)">Mentions</text>
    <circle cx="262" cy="108" r="5" fill="#7c3aed">
      <animate attributeName="r" values="4;6;4" dur="900ms" repeatCount="indefinite"/>
    </circle>

    <text x="32" y="153" font-size="14" fill="rgba(232,240,255,0.92)">Tasks</text>
    <rect x="240" y="140" width="32" height="18" rx="9" fill="rgba(251,146,60,0.22)"/>
    <text x="256" y="153" text-anchor="middle" font-size="11" font-weight="600" fill="#fb923c">5</text>

    <text x="32" y="193" font-size="14" fill="rgba(232,240,255,0.92)">Public</text>
    <text x="32" y="233" font-size="14" fill="rgba(232,240,255,0.92)">Archive</text>
    <text x="32" y="273" font-size="14" fill="rgba(232,240,255,0.92)">Pinned</text>
    <text x="32" y="306" font-size="11" fill="rgba(232,240,255,0.42)" font-family="Geist, Inter, sans-serif">+ Manage saved searches</text>

    <line x1="20" y1="332" x2="276" y2="332" stroke="rgba(34,211,238,0.18)"/>
    <text x="20" y="356" font-size="11" font-weight="600" fill="rgba(232,240,255,0.62)" font-family="Geist, Inter, sans-serif" letter-spacing="0.08em">FILTERS</text>

    <rect x="20" y="370" width="92" height="26" rx="13" fill="#22d3ee"/>
    <text x="66" y="387" text-anchor="middle" font-size="11" font-weight="700" fill="#0b1320">Unread only</text>
    <rect x="118" y="370" width="106" height="26" rx="13" fill="transparent" stroke="rgba(34,211,238,0.18)"/>
    <text x="171" y="387" text-anchor="middle" font-size="11" fill="rgba(232,240,255,0.92)">Attachments</text>
    <rect x="20" y="404" width="78" height="26" rx="13" fill="transparent" stroke="rgba(34,211,238,0.18)"/>
    <text x="59" y="421" text-anchor="middle" font-size="11" fill="rgba(232,240,255,0.92)">From me</text>
    <rect x="104" y="404" width="74" height="26" rx="13" fill="transparent" stroke="rgba(34,211,238,0.18)"/>
    <text x="141" y="421" text-anchor="middle" font-size="11" fill="rgba(232,240,255,0.92)">With @</text>
    <rect x="184" y="404" width="84" height="26" rx="13" fill="transparent" stroke="rgba(34,211,238,0.18)"/>
    <text x="226" y="421" text-anchor="middle" font-size="11" fill="rgba(232,240,255,0.92)">Has task</text>

    <line x1="20" y1="450" x2="276" y2="450" stroke="rgba(34,211,238,0.18)"/>
    <text x="20" y="476" font-size="11" fill="rgba(232,240,255,0.42)" font-family="Geist, Inter, sans-serif">Showing 12 unread waves in Inbox</text>
  </g>

  <!-- Search result panel -->
  <g transform="translate(296,64)">
    <rect x="0" y="0" width="448" height="836" fill="#11192a" stroke="rgba(34,211,238,0.18)"/>
    <text x="24" y="36" font-size="16" font-weight="600" fill="rgba(232,240,255,0.92)" font-family="'Space Grotesk', Inter, sans-serif">Inbox</text>
    <text x="24" y="54" font-size="11" fill="rgba(232,240,255,0.42)" font-family="Geist, Inter, sans-serif">in:inbox unread:true · 12 waves</text>

    <!-- Card 1 selected with cyan glow -->
    <g transform="translate(16,76)" filter="url(#cyan-glow)">
      <rect width="416" height="120" rx="12" fill="rgba(34,211,238,0.08)" stroke="#22d3ee" stroke-width="2"/>
    </g>
    <g transform="translate(16,76)">
      <g transform="translate(16,16)">
        <circle cx="14" cy="14" r="14" fill="#22d3ee"/>
        <text x="14" y="19" text-anchor="middle" font-size="11" font-weight="700" fill="#0b1320">AT</text>
        <circle cx="34" cy="14" r="14" fill="#7c3aed"/>
        <text x="34" y="19" text-anchor="middle" font-size="11" font-weight="700" fill="#ffffff">SK</text>
        <circle cx="54" cy="14" r="14" fill="#fb923c"/>
        <text x="54" y="19" text-anchor="middle" font-size="11" font-weight="700" fill="#0b1320">MR</text>
        <circle cx="74" cy="14" r="14" fill="rgba(232,240,255,0.18)"/>
        <text x="74" y="18" text-anchor="middle" font-size="10" font-weight="600" fill="rgba(232,240,255,0.92)">+2</text>
      </g>
      <text x="124" y="32" font-size="14" font-weight="700" fill="rgba(232,240,255,0.92)">Robot streaming follow-up — 4xx retries</text>
      <text x="124" y="52" font-size="12" fill="rgba(232,240,255,0.62)">Sasha: I bumped the retry budget but we still see backoff after</text>
      <text x="124" y="68" font-size="12" fill="rgba(232,240,255,0.62)">five consecutive 502s on the streaming endpoint. Anyone seeing</text>
      <text x="124" y="84" font-size="12" fill="rgba(232,240,255,0.62)">this on prod-2 today?</text>
      <g transform="translate(124,96)">
        <rect width="44" height="20" rx="10" fill="#22d3ee"/>
        <text x="22" y="14" text-anchor="middle" font-size="11" font-weight="700" fill="#0b1320">3 new</text>
        <text x="56" y="14" font-size="11" fill="rgba(232,240,255,0.42)" font-family="Geist, Inter, sans-serif">· 18 blips</text>
        <text x="280" y="14" font-size="11" fill="rgba(232,240,255,0.42)" font-family="Geist, Inter, sans-serif">2 min ago</text>
      </g>
      <circle cx="402" cy="20" r="6" fill="#22d3ee">
        <animate attributeName="r" values="6;9;6" dur="900ms" repeatCount="indefinite"/>
      </circle>
    </g>

    <!-- Card 2 -->
    <g transform="translate(16,212)">
      <rect width="416" height="100" rx="12" fill="#0b1320" stroke="rgba(34,211,238,0.18)" filter="url(#dark-card-shadow)"/>
      <circle cx="30" cy="30" r="14" fill="#7c3aed"/>
      <text x="30" y="35" text-anchor="middle" font-size="11" font-weight="700" fill="#ffffff">YZ</text>
      <circle cx="50" cy="30" r="14" fill="#475569"/>
      <text x="50" y="35" text-anchor="middle" font-size="11" font-weight="700" fill="#ffffff">DK</text>
      <text x="124" y="32" font-size="14" font-weight="700" fill="rgba(232,240,255,0.92)">Lucene startup reuse — design review</text>
      <text x="124" y="52" font-size="12" fill="rgba(232,240,255,0.62)">Dan: design memo updated with the index-stamp invariant.</text>
      <text x="124" y="68" font-size="12" fill="rgba(232,240,255,0.62)">Ready for a second pass when you have a window today.</text>
      <g transform="translate(124,80)">
        <rect width="44" height="20" rx="10" fill="rgba(34,211,238,0.22)"/>
        <text x="22" y="14" text-anchor="middle" font-size="11" font-weight="700" fill="#22d3ee">1 new</text>
        <rect x="54" y="0" width="40" height="20" rx="10" fill="rgba(124,58,237,0.22)"/>
        <text x="74" y="14" text-anchor="middle" font-size="11" font-weight="600" fill="#7c3aed">@you</text>
        <text x="280" y="14" font-size="11" fill="rgba(232,240,255,0.42)" font-family="Geist, Inter, sans-serif">14 min ago</text>
      </g>
    </g>

    <!-- Card 3 -->
    <g transform="translate(16,328)">
      <rect width="416" height="100" rx="12" fill="#0b1320" stroke="rgba(34,211,238,0.18)" filter="url(#dark-card-shadow)"/>
      <circle cx="30" cy="30" r="14" fill="#fb923c"/>
      <text x="30" y="35" text-anchor="middle" font-size="11" font-weight="700" fill="#0b1320">MR</text>
      <text x="60" y="32" font-size="14" font-weight="700" fill="rgba(232,240,255,0.92)">Sprint 18 retro</text>
      <text x="60" y="52" font-size="12" fill="rgba(232,240,255,0.62)">Marina: tasks rolled forward. Two carryovers from F-3.</text>
      <text x="60" y="68" font-size="12" fill="rgba(232,240,255,0.62)">Tagged Yuri and Sasha as owners.</text>
      <g transform="translate(60,80)">
        <rect width="44" height="20" rx="10" fill="rgba(251,146,60,0.22)"/>
        <text x="22" y="14" text-anchor="middle" font-size="11" font-weight="700" fill="#fb923c">2 task</text>
        <text x="56" y="14" font-size="11" fill="rgba(232,240,255,0.42)" font-family="Geist, Inter, sans-serif">· 6 blips</text>
        <text x="280" y="14" font-size="11" fill="rgba(232,240,255,0.42)" font-family="Geist, Inter, sans-serif">42 min ago</text>
      </g>
    </g>

    <!-- Card 4 read -->
    <g transform="translate(16,444)" opacity="0.7">
      <rect width="416" height="92" rx="12" fill="#0b1320" stroke="rgba(34,211,238,0.18)"/>
      <circle cx="30" cy="30" r="14" fill="#22d3ee"/>
      <text x="30" y="35" text-anchor="middle" font-size="11" font-weight="700" fill="#0b1320">AT</text>
      <text x="60" y="32" font-size="14" font-weight="600" fill="rgba(232,240,255,0.92)">Onboarding flow polish</text>
      <text x="60" y="52" font-size="12" fill="rgba(232,240,255,0.62)">Anton: pushed the welcome-wave copy. Final review tomorrow.</text>
      <text x="60" y="80" font-size="11" fill="rgba(232,240,255,0.42)" font-family="Geist, Inter, sans-serif">4 blips · all read</text>
      <text x="400" y="80" text-anchor="end" font-size="11" fill="rgba(232,240,255,0.42)" font-family="Geist, Inter, sans-serif">2 hours ago</text>
    </g>

    <!-- Card 5 -->
    <g transform="translate(16,552)">
      <rect width="416" height="92" rx="12" fill="#0b1320" stroke="rgba(34,211,238,0.18)"/>
      <circle cx="30" cy="30" r="14" fill="#7c3aed"/>
      <text x="30" y="35" text-anchor="middle" font-size="11" font-weight="700" fill="#ffffff">YZ</text>
      <circle cx="50" cy="30" r="14" fill="#22d3ee"/>
      <text x="50" y="35" text-anchor="middle" font-size="11" font-weight="700" fill="#0b1320">PK</text>
      <text x="124" y="32" font-size="14" font-weight="700" fill="rgba(232,240,255,0.92)">J2CL parity matrix — gate review</text>
      <text x="124" y="52" font-size="12" fill="rgba(232,240,255,0.62)">Pavel: 4/26 gates green; need J-UI-1..8 closed before re-vote.</text>
      <g transform="translate(124,68)">
        <rect width="44" height="20" rx="10" fill="rgba(34,211,238,0.22)"/>
        <text x="22" y="14" text-anchor="middle" font-size="11" font-weight="700" fill="#22d3ee">5 new</text>
      </g>
    </g>

    <!-- Card 6 -->
    <g transform="translate(16,660)">
      <rect width="416" height="92" rx="12" fill="#0b1320" stroke="rgba(34,211,238,0.18)"/>
      <circle cx="30" cy="30" r="14" fill="#475569"/>
      <text x="30" y="35" text-anchor="middle" font-size="11" font-weight="700" fill="#ffffff">DK</text>
      <text x="60" y="32" font-size="14" font-weight="700" fill="rgba(232,240,255,0.92)">Grafana INP regression</text>
      <text x="60" y="52" font-size="12" fill="rgba(232,240,255,0.62)">Dan: p75 INP up 18% on /?view=j2cl-root since Tuesday's deploy.</text>
      <g transform="translate(60,68)">
        <rect width="44" height="20" rx="10" fill="rgba(34,211,238,0.22)"/>
        <text x="22" y="14" text-anchor="middle" font-size="11" font-weight="700" fill="#22d3ee">2 new</text>
      </g>
    </g>

    <!-- skeleton -->
    <g transform="translate(16,768)" opacity="0.4">
      <rect width="416" height="60" rx="12" fill="#0b1320" stroke="rgba(34,211,238,0.18)"/>
      <text x="208" y="36" text-anchor="middle" font-size="11" fill="rgba(232,240,255,0.62)" font-family="Geist, Inter, sans-serif">6 more waves below</text>
    </g>
  </g>

  <!-- Wave panel -->
  <g transform="translate(744,64)">
    <rect x="0" y="0" width="696" height="836" fill="#11192a" stroke="rgba(34,211,238,0.18)"/>

    <g transform="translate(24,24)">
      <text x="0" y="20" font-size="11" fill="rgba(232,240,255,0.62)" font-family="Geist, Inter, sans-serif" letter-spacing="0.08em">WAVE · 7c4a91 · UPDATED 2 MIN AGO</text>
      <text x="0" y="50" font-size="22" font-weight="700" fill="rgba(232,240,255,0.92)" font-family="'Space Grotesk', Inter, sans-serif">Robot streaming follow-up — 4xx retries</text>

      <g transform="translate(0,68)">
        <circle cx="12" cy="12" r="12" fill="#22d3ee"/>
        <text x="12" y="16" text-anchor="middle" font-size="10" font-weight="700" fill="#0b1320">AT</text>
        <circle cx="30" cy="12" r="12" fill="#7c3aed"/>
        <text x="30" y="16" text-anchor="middle" font-size="10" font-weight="700" fill="#ffffff">SK</text>
        <circle cx="48" cy="12" r="12" fill="#fb923c"/>
        <text x="48" y="16" text-anchor="middle" font-size="10" font-weight="700" fill="#0b1320">MR</text>
        <circle cx="66" cy="12" r="12" fill="#475569"/>
        <text x="66" y="16" text-anchor="middle" font-size="10" font-weight="700" fill="#ffffff">DK</text>
        <circle cx="84" cy="12" r="12" fill="#7c3aed"/>
        <text x="84" y="16" text-anchor="middle" font-size="10" font-weight="700" fill="#ffffff">YZ</text>
        <text x="106" y="16" font-size="12" fill="rgba(232,240,255,0.62)">5 participants</text>
      </g>

      <g transform="translate(0,108)">
        <rect width="92" height="32" rx="16" fill="#22d3ee" filter="url(#cyan-glow)"/>
        <text x="46" y="20" text-anchor="middle" font-size="12" font-weight="700" fill="#0b1320">Reply</text>
        <rect x="100" y="0" width="76" height="32" rx="16" fill="transparent" stroke="rgba(34,211,238,0.18)"/>
        <text x="138" y="20" text-anchor="middle" font-size="12" fill="rgba(232,240,255,0.92)">Pin</text>
        <rect x="184" y="0" width="92" height="32" rx="16" fill="transparent" stroke="rgba(34,211,238,0.18)"/>
        <text x="230" y="20" text-anchor="middle" font-size="12" fill="rgba(232,240,255,0.92)">Archive</text>
        <rect x="284" y="0" width="100" height="32" rx="16" fill="transparent" stroke="rgba(34,211,238,0.18)"/>
        <text x="334" y="20" text-anchor="middle" font-size="12" fill="rgba(232,240,255,0.92)">Mark read</text>
        <rect x="392" y="0" width="60" height="32" rx="16" fill="transparent" stroke="rgba(34,211,238,0.18)"/>
        <text x="422" y="20" text-anchor="middle" font-size="12" fill="rgba(232,240,255,0.92)">Tags</text>
      </g>
    </g>

    <line x1="24" y1="200" x2="672" y2="200" stroke="rgba(34,211,238,0.18)"/>

    <!-- Sample blip -->
    <g transform="translate(24,224)">
      <rect width="624" height="120" rx="12" fill="#0b1320" stroke="rgba(34,211,238,0.18)"/>
      <circle cx="32" cy="32" r="16" fill="#22d3ee"/>
      <text x="32" y="37" text-anchor="middle" font-size="12" font-weight="700" fill="#0b1320">AT</text>
      <text x="60" y="32" font-size="13" font-weight="700" fill="rgba(232,240,255,0.92)">Anton T.</text>
      <text x="120" y="32" font-size="11" fill="rgba(232,240,255,0.42)" font-family="Geist, Inter, sans-serif">2 hours ago · root</text>
      <text x="60" y="56" font-size="13" fill="rgba(232,240,255,0.92)">Sasha — what's the actual retry budget after the F-3 cleanup? I'm</text>
      <text x="60" y="74" font-size="13" fill="rgba(232,240,255,0.92)">seeing logs that look like we're doubling up between the streaming</text>
      <text x="60" y="92" font-size="13" fill="rgba(232,240,255,0.92)">handler and the outer fetch. Repro is on prod-2 only.</text>
    </g>

    <text x="24" y="380" font-size="11" fill="rgba(232,240,255,0.42)" font-family="Geist, Inter, sans-serif">17 more blips · 2 collapsed sub-threads · 1 task active</text>

    <!-- Reactions strip -->
    <g transform="translate(24,420)">
      <rect width="180" height="32" rx="16" fill="#0b1320" stroke="rgba(34,211,238,0.18)"/>
      <text x="14" y="20" font-size="13">👀</text>
      <text x="36" y="22" font-size="11" font-weight="700" fill="rgba(232,240,255,0.92)" font-family="Geist, Inter, sans-serif">3</text>
      <text x="60" y="20" font-size="13">🚀</text>
      <text x="82" y="22" font-size="11" font-weight="700" fill="rgba(232,240,255,0.92)" font-family="Geist, Inter, sans-serif">1</text>
      <text x="106" y="20" font-size="13">+</text>
    </g>

    <!-- Floating scroll-to-new -->
    <g transform="translate(484,750)">
      <rect width="180" height="36" rx="18" fill="#22d3ee" filter="url(#cyan-glow)"/>
      <text x="90" y="22" text-anchor="middle" font-size="12" font-weight="700" fill="#0b1320">↓ 3 new blips below</text>
    </g>
  </g>

  <text x="20" y="884" font-size="11" fill="rgba(232,240,255,0.42)" font-family="Geist, Inter, sans-serif">Dark variant · matches j2cl/lit/src/design/wavy-tokens.css default · matrix R-3.5, R-4.5 · same components, theme via [data-wavy-theme="dark"]</text>
</svg>
