<svg xmlns="http://www.w3.org/2000/svg" width="1440" height="900" viewBox="0 0 1440 900" role="img" aria-labelledby="title desc" font-family="Inter, -apple-system, 'Segoe UI', sans-serif">
  <title id="title">J-UI-8 — Server-first paint of selected wave (before vs after JS upgrade)</title>
  <desc id="desc">Diagram comparing two phases of /?view=j2cl-root&amp;wave=7c4a91. Left: HTML response from J2clSelectedWaveSnapshotRenderer rendered directly by the browser before any client JS boots — wave header, blip text, simple read-only DOM. Right: hydrated shell after Lit components upgrade — same DOM positions, now interactive with focus frame, toolbars, live activity. Annotation rail underneath shows network timeline and key invariants.</desc>
  <defs>
    <linearGradient id="bg" x1="0" y1="0" x2="0" y2="1">
      <stop offset="0%" stop-color="#f6f7fb"/>
      <stop offset="100%" stop-color="#eef1f7"/>
    </linearGradient>
    <filter id="card-shadow" x="-5%" y="-10%" width="110%" height="120%">
      <feDropShadow dx="0" dy="4" stdDeviation="6" flood-color="#0b1320" flood-opacity="0.06"/>
    </filter>
    <symbol id="supawave-mark" viewBox="0 0 48 48">
      <circle cx="24" cy="24" r="24" fill="#0a4f82"/>
      <path d="M8 28 Q14 16 20 28 Q24 36 28 28 Q34 16 40 28" stroke="#ffffff" stroke-width="4" stroke-linecap="round" fill="none"/>
      <circle cx="24" cy="18" r="3.5" fill="#ffd166"/>
    </symbol>
  </defs>

  <rect width="1440" height="900" fill="url(#bg)"/>

  <!-- Top bar -->
  <rect x="0" y="0" width="1440" height="56" fill="#ffffff" stroke="rgba(11,19,32,0.10)"/>
  <use href="#supawave-mark" x="20" y="10" width="36" height="36"/>
  <text x="64" y="34" font-size="18" font-weight="700" fill="#0b1320" font-family="'Space Grotesk', Inter, sans-serif">SupaWave</text>
  <text x="186" y="34" font-size="13" fill="rgba(11,19,32,0.62)">Server-first first-paint diagram · /?view=j2cl-root&amp;wave=7c4a91</text>

  <!-- Section header -->
  <text x="40" y="100" font-size="22" font-weight="700" fill="#0b1320" font-family="'Space Grotesk', Inter, sans-serif">Before JS boots → After upgrade</text>
  <text x="40" y="124" font-size="13" fill="rgba(11,19,32,0.62)">J2clSelectedWaveSnapshotRenderer renders the visible region in the initial HTML; the shell upgrades in place — no "Select a wave" flash.</text>

  <!-- ============ LEFT: BEFORE (server HTML) ============ -->
  <g transform="translate(40,160)">
    <text x="0" y="0" font-size="11" font-weight="600" fill="rgba(11,19,32,0.55)" font-family="Geist, Inter, sans-serif" letter-spacing="0.08em">PHASE 1 · SERVER HTML · 0–80MS</text>
    <rect x="0" y="16" width="640" height="500" rx="14" fill="#ffffff" stroke="rgba(11,19,32,0.10)" filter="url(#card-shadow)"/>

    <!-- Browser chrome -->
    <g transform="translate(0,16)">
      <rect width="640" height="32" rx="14" fill="#fafbfd"/>
      <rect width="640" height="14" fill="#fafbfd"/>
      <circle cx="14" cy="16" r="4" fill="#fb923c"/>
      <circle cx="28" cy="16" r="4" fill="#22d3ee" opacity="0.6"/>
      <circle cx="42" cy="16" r="4" fill="#7c3aed" opacity="0.6"/>
      <rect x="60" y="6" width="560" height="20" rx="10" fill="#ffffff" stroke="rgba(11,19,32,0.10)"/>
      <text x="74" y="20" font-size="10" font-family="ui-monospace, monospace" fill="rgba(11,19,32,0.62)">supawave.dev/?view=j2cl-root&amp;wave=7c4a91</text>
    </g>

    <!-- Server-rendered minimal shell -->
    <g transform="translate(16,68)">
      <!-- Static header -->
      <rect width="608" height="40" rx="8" fill="#fafbfd" stroke="rgba(11,19,32,0.10)"/>
      <use href="#supawave-mark" x="8" y="8" width="24" height="24"/>
      <text x="40" y="26" font-size="12" font-weight="700" fill="#0b1320">SupaWave</text>
      <text x="120" y="26" font-size="11" fill="rgba(11,19,32,0.55)">Inbox › Robot streaming follow-up</text>

      <!-- Static rail (read-only) -->
      <rect x="0" y="52" width="160" height="408" rx="8" fill="#fafbfd" stroke="rgba(11,19,32,0.10)"/>
      <text x="12" y="76" font-size="10" font-weight="600" fill="rgba(11,19,32,0.55)" font-family="Geist, Inter, sans-serif" letter-spacing="0.08em">SAVED</text>
      <rect x="6" y="84" width="148" height="28" rx="8" fill="rgba(34,211,238,0.18)"/>
      <text x="16" y="102" font-size="11" font-weight="600" fill="#0b1320">Inbox</text>
      <text x="16" y="130" font-size="11" fill="#0b1320">Mentions</text>
      <text x="16" y="150" font-size="11" fill="#0b1320">Tasks</text>
      <text x="16" y="170" font-size="11" fill="#0b1320">Public</text>
      <text x="16" y="190" font-size="11" fill="#0b1320">Archive</text>
      <text x="16" y="210" font-size="11" fill="#0b1320">Pinned</text>

      <!-- Static wave panel (snapshot renderer output) -->
      <rect x="172" y="52" width="436" height="408" rx="8" fill="#ffffff" stroke="rgba(11,19,32,0.10)"/>
      <text x="184" y="76" font-size="10" font-weight="600" fill="rgba(11,19,32,0.55)" font-family="Geist, Inter, sans-serif" letter-spacing="0.08em">WAVE · 7c4a91 · 5 PARTICIPANTS</text>
      <text x="184" y="100" font-size="14" font-weight="700" fill="#0b1320">Robot streaming follow-up — 4xx retries</text>

      <line x1="184" y1="116" x2="596" y2="116" stroke="rgba(11,19,32,0.10)"/>

      <!-- snapshot blips -->
      <g transform="translate(184,128)">
        <circle cx="12" cy="12" r="12" fill="#22d3ee"/>
        <text x="12" y="16" text-anchor="middle" font-size="10" font-weight="700" fill="#0b1320">AT</text>
        <text x="32" y="14" font-size="11" font-weight="700" fill="#0b1320">Anton T.</text>
        <text x="92" y="14" font-size="10" fill="rgba(11,19,32,0.55)" font-family="Geist, Inter, sans-serif">2 hr ago</text>
        <text x="32" y="32" font-size="11" fill="rgba(11,19,32,0.92)">Sasha — what's the actual retry budget after the F-3</text>
        <text x="32" y="46" font-size="11" fill="rgba(11,19,32,0.92)">cleanup? I'm seeing logs that look like we're doubling up.</text>
      </g>

      <g transform="translate(204,196)">
        <circle cx="10" cy="10" r="10" fill="#7c3aed"/>
        <text x="10" y="14" text-anchor="middle" font-size="9" font-weight="700" fill="#ffffff">SK</text>
        <text x="28" y="12" font-size="11" font-weight="700" fill="#0b1320">Sasha K.</text>
        <text x="80" y="12" font-size="10" fill="rgba(11,19,32,0.55)" font-family="Geist, Inter, sans-serif">1 hr ago</text>
        <text x="28" y="28" font-size="11" fill="rgba(11,19,32,0.92)">Budget is 3 retries. Outer fetch should not retry — got an ID?</text>
      </g>

      <g transform="translate(224,250)">
        <circle cx="10" cy="10" r="10" fill="#fb923c"/>
        <text x="10" y="14" text-anchor="middle" font-size="9" font-weight="700" fill="#0b1320">MR</text>
        <text x="28" y="12" font-size="11" font-weight="700" fill="#0b1320">Marina R.</text>
        <text x="88" y="12" font-size="10" fill="rgba(11,19,32,0.55)" font-family="Geist, Inter, sans-serif">42 min ago</text>
        <text x="28" y="28" font-size="11" fill="rgba(11,19,32,0.92)">request-id 6f1a-7cc4: outer retried 2 + handler 3 = 5.</text>
      </g>

      <g transform="translate(204,304)">
        <circle cx="10" cy="10" r="10" fill="#475569"/>
        <text x="10" y="14" text-anchor="middle" font-size="9" font-weight="700" fill="#ffffff">DK</text>
        <text x="28" y="12" font-size="11" font-weight="700" fill="#0b1320">Dan K.</text>
        <text x="76" y="12" font-size="10" fill="rgba(11,19,32,0.55)" font-family="Geist, Inter, sans-serif">2 min ago</text>
        <text x="28" y="28" font-size="11" fill="rgba(11,19,32,0.92)">Confirmed on staging-3 too. Bumping severity.</text>
      </g>

      <!-- noscript reply hint -->
      <g transform="translate(184,372)">
        <rect width="412" height="40" rx="8" fill="#fafbfd" stroke="rgba(11,19,32,0.10)" stroke-dasharray="4 4"/>
        <text x="14" y="18" font-size="11" font-weight="600" fill="#0b1320">Reply form (noscript fallback)</text>
        <text x="14" y="32" font-size="10" fill="rgba(11,19,32,0.55)" font-family="Geist, Inter, sans-serif">Submits via POST /api/wavelet/7c4a91/blips · upgrades on JS boot</text>
      </g>
    </g>

    <!-- callouts -->
    <g transform="translate(0,484)">
      <text x="0" y="14" font-size="11" fill="rgba(11,19,32,0.62)" font-family="Geist, Inter, sans-serif">Read-only DOM · no JS bundle yet · zero "Select a wave" flash</text>
    </g>
  </g>

  <!-- arrow between -->
  <g transform="translate(700,400)">
    <line x1="0" y1="0" x2="40" y2="0" stroke="#22d3ee" stroke-width="3"/>
    <polygon points="38,-6 50,0 38,6" fill="#22d3ee"/>
    <text x="-10" y="-12" text-anchor="end" font-size="11" font-weight="600" fill="#0b1320" font-family="Geist, Inter, sans-serif">JS boot</text>
    <text x="-10" y="2" text-anchor="end" font-size="10" fill="rgba(11,19,32,0.55)" font-family="Geist, Inter, sans-serif">≈ 200ms</text>
    <text x="-10" y="16" text-anchor="end" font-size="10" fill="rgba(11,19,32,0.55)" font-family="Geist, Inter, sans-serif">customElements upgrade</text>
  </g>

  <!-- ============ RIGHT: AFTER (hydrated) ============ -->
  <g transform="translate(760,160)">
    <text x="0" y="0" font-size="11" font-weight="600" fill="#0b1320" font-family="Geist, Inter, sans-serif" letter-spacing="0.08em">PHASE 2 · HYDRATED · 200MS+</text>
    <rect x="0" y="16" width="640" height="500" rx="14" fill="#ffffff" stroke="#22d3ee" stroke-width="2" filter="url(#card-shadow)"/>

    <!-- Browser chrome -->
    <g transform="translate(0,16)">
      <rect width="640" height="32" rx="14" fill="#fafbfd"/>
      <rect width="640" height="14" fill="#fafbfd"/>
      <circle cx="14" cy="16" r="4" fill="#fb923c"/>
      <circle cx="28" cy="16" r="4" fill="#22d3ee" opacity="0.6"/>
      <circle cx="42" cy="16" r="4" fill="#7c3aed" opacity="0.6"/>
      <rect x="60" y="6" width="560" height="20" rx="10" fill="#ffffff" stroke="rgba(11,19,32,0.10)"/>
      <text x="74" y="20" font-size="10" font-family="ui-monospace, monospace" fill="rgba(11,19,32,0.62)">supawave.dev/?view=j2cl-root&amp;wave=7c4a91</text>
      <rect x="540" y="6" width="76" height="20" rx="10" fill="rgba(34,211,238,0.18)"/>
      <text x="578" y="20" text-anchor="middle" font-size="10" font-weight="700" fill="#0b1320" font-family="Geist, Inter, sans-serif">UPGRADED</text>
    </g>

    <!-- Hydrated shell -->
    <g transform="translate(16,68)">
      <rect width="608" height="40" rx="8" fill="#ffffff" stroke="rgba(11,19,32,0.10)"/>
      <use href="#supawave-mark" x="8" y="8" width="24" height="24"/>
      <text x="40" y="26" font-size="12" font-weight="700" fill="#0b1320">SupaWave</text>
      <rect x="500" y="6" width="100" height="28" rx="14" fill="#22d3ee"/>
      <text x="550" y="25" text-anchor="middle" font-size="11" font-weight="700" fill="#0b1320">+ New Wave</text>

      <!-- Active rail with chips -->
      <rect x="0" y="52" width="160" height="408" rx="8" fill="#ffffff" stroke="rgba(11,19,32,0.10)"/>
      <text x="12" y="76" font-size="10" font-weight="600" fill="rgba(11,19,32,0.55)" font-family="Geist, Inter, sans-serif" letter-spacing="0.08em">SAVED</text>
      <rect x="6" y="84" width="148" height="28" rx="8" fill="rgba(34,211,238,0.18)"/>
      <rect x="6" y="84" width="3" height="28" rx="2" fill="#22d3ee"/>
      <text x="16" y="102" font-size="11" font-weight="600" fill="#0b1320">Inbox</text>
      <rect x="120" y="90" width="28" height="16" rx="8" fill="#22d3ee"/>
      <text x="134" y="102" text-anchor="middle" font-size="9" font-weight="700" fill="#0b1320">12</text>
      <text x="16" y="130" font-size="11" fill="#0b1320">Mentions</text>
      <circle cx="146" cy="125" r="4" fill="#7c3aed"/>
      <text x="16" y="150" font-size="11" fill="#0b1320">Tasks</text>
      <rect x="124" y="138" width="24" height="16" rx="8" fill="rgba(251,146,60,0.22)"/>
      <text x="136" y="150" text-anchor="middle" font-size="9" font-weight="700" fill="#7a3a06">5</text>
      <text x="16" y="170" font-size="11" fill="#0b1320">Public</text>
      <text x="16" y="190" font-size="11" fill="#0b1320">Archive</text>
      <text x="16" y="210" font-size="11" fill="#0b1320">Pinned</text>

      <line x1="6" y1="232" x2="154" y2="232" stroke="rgba(11,19,32,0.10)"/>
      <text x="12" y="252" font-size="10" font-weight="600" fill="rgba(11,19,32,0.55)" font-family="Geist, Inter, sans-serif" letter-spacing="0.08em">FILTERS</text>
      <rect x="6" y="262" width="68" height="20" rx="10" fill="#0b1320"/>
      <text x="40" y="276" text-anchor="middle" font-size="10" font-weight="600" fill="#ffffff">Unread</text>
      <rect x="80" y="262" width="74" height="20" rx="10" fill="#ffffff" stroke="rgba(11,19,32,0.10)"/>
      <text x="117" y="276" text-anchor="middle" font-size="10" fill="#0b1320">Has task</text>

      <!-- Hydrated wave panel — same DOM positions, now interactive -->
      <rect x="172" y="52" width="436" height="408" rx="8" fill="#ffffff" stroke="rgba(11,19,32,0.10)"/>
      <text x="184" y="76" font-size="10" font-weight="600" fill="rgba(11,19,32,0.55)" font-family="Geist, Inter, sans-serif" letter-spacing="0.08em">WAVE · 7c4a91 · 5 PARTICIPANTS</text>
      <text x="184" y="100" font-size="14" font-weight="700" fill="#0b1320">Robot streaming follow-up — 4xx retries</text>

      <!-- toolbar appears -->
      <g transform="translate(184,108)">
        <rect width="64" height="22" rx="11" fill="#0b1320"/>
        <text x="32" y="15" text-anchor="middle" font-size="10" font-weight="600" fill="#ffffff">Reply</text>
        <rect x="72" y="0" width="48" height="22" rx="11" fill="#ffffff" stroke="rgba(11,19,32,0.10)"/>
        <text x="96" y="15" text-anchor="middle" font-size="10" fill="#0b1320">Pin</text>
        <rect x="128" y="0" width="64" height="22" rx="11" fill="#ffffff" stroke="rgba(11,19,32,0.10)"/>
        <text x="160" y="15" text-anchor="middle" font-size="10" fill="#0b1320">Archive</text>
      </g>

      <line x1="184" y1="142" x2="596" y2="142" stroke="rgba(11,19,32,0.10)"/>

      <!-- Same blips, but now interactive with focus frame on Marina -->
      <g transform="translate(184,154)">
        <circle cx="12" cy="12" r="12" fill="#22d3ee"/>
        <text x="12" y="16" text-anchor="middle" font-size="10" font-weight="700" fill="#0b1320">AT</text>
        <text x="32" y="14" font-size="11" font-weight="700" fill="#0b1320">Anton T.</text>
        <text x="92" y="14" font-size="10" fill="rgba(11,19,32,0.55)" font-family="Geist, Inter, sans-serif">2 hr ago</text>
        <text x="32" y="32" font-size="11" fill="rgba(11,19,32,0.92)">Sasha — what's the actual retry budget after the F-3</text>
        <text x="32" y="46" font-size="11" fill="rgba(11,19,32,0.92)">cleanup?</text>
      </g>

      <g transform="translate(204,212)">
        <circle cx="10" cy="10" r="10" fill="#7c3aed"/>
        <text x="10" y="14" text-anchor="middle" font-size="9" font-weight="700" fill="#ffffff">SK</text>
        <text x="28" y="12" font-size="11" font-weight="700" fill="#0b1320">Sasha K.</text>
        <text x="28" y="28" font-size="11" fill="rgba(11,19,32,0.92)">Budget is 3 retries. Outer fetch should not retry.</text>
      </g>

      <!-- Focus frame -->
      <g transform="translate(220,256)">
        <rect x="-4" y="-6" width="380" height="44" rx="8" fill="#fafbfd" stroke="#22d3ee" stroke-width="2"/>
        <circle cx="10" cy="10" r="10" fill="#fb923c"/>
        <text x="10" y="14" text-anchor="middle" font-size="9" font-weight="700" fill="#0b1320">MR</text>
        <text x="28" y="12" font-size="11" font-weight="700" fill="#0b1320">Marina R.</text>
        <rect x="92" y="2" width="38" height="14" rx="7" fill="rgba(34,211,238,0.18)"/>
        <text x="111" y="13" text-anchor="middle" font-size="9" font-weight="700" fill="#0b1320">FOCUS</text>
        <text x="28" y="28" font-size="11" fill="rgba(11,19,32,0.92)">request-id 6f1a-7cc4: outer 2 + handler 3 = 5.</text>
      </g>

      <g transform="translate(204,310)">
        <circle cx="10" cy="10" r="10" fill="#475569"/>
        <text x="10" y="14" text-anchor="middle" font-size="9" font-weight="700" fill="#ffffff">DK</text>
        <text x="28" y="12" font-size="11" font-weight="700" fill="#0b1320">Dan K.</text>
        <rect x="74" y="2" width="36" height="14" rx="7" fill="#22d3ee"/>
        <text x="92" y="13" text-anchor="middle" font-size="9" font-weight="700" fill="#0b1320">NEW</text>
        <text x="28" y="28" font-size="11" fill="rgba(11,19,32,0.92)">Confirmed on staging-3 too. Bumping severity.</text>
      </g>

      <!-- Compose dock (now contenteditable) -->
      <g transform="translate(184,372)">
        <rect width="412" height="40" rx="8" fill="#fafbfd" stroke="#22d3ee" stroke-width="2"/>
        <text x="14" y="18" font-size="11" font-weight="600" fill="#0b1320">Inline rich-text composer (contenteditable)</text>
        <text x="14" y="32" font-size="10" fill="rgba(11,19,32,0.55)" font-family="Geist, Inter, sans-serif">Selection-driven format toolbar · ⌘↵ to send</text>
        <rect x="356" y="8" width="48" height="24" rx="12" fill="#22d3ee"/>
        <text x="380" y="23" text-anchor="middle" font-size="11" font-weight="700" fill="#0b1320">Send</text>
      </g>
    </g>

    <g transform="translate(0,484)">
      <text x="0" y="14" font-size="11" fill="rgba(11,19,32,0.62)" font-family="Geist, Inter, sans-serif">Live activity, focus frame, contenteditable composer · same DOM positions, no layout shift</text>
    </g>
  </g>

  <!-- ============ TIMELINE / INVARIANTS RAIL ============ -->
  <g transform="translate(40,684)">
    <rect width="1360" height="180" rx="14" fill="#ffffff" stroke="rgba(11,19,32,0.10)" filter="url(#card-shadow)"/>
    <text x="20" y="32" font-size="14" font-weight="700" fill="#0b1320" font-family="'Space Grotesk', Inter, sans-serif">Timeline &amp; invariants</text>

    <!-- timeline -->
    <g transform="translate(20,52)">
      <line x1="0" y1="0" x2="1300" y2="0" stroke="rgba(11,19,32,0.10)"/>
      <!-- ticks -->
      <g font-family="Geist, Inter, sans-serif" font-size="10" fill="rgba(11,19,32,0.55)">
        <line x1="0" y1="-4" x2="0" y2="4" stroke="rgba(11,19,32,0.55)"/>
        <text x="0" y="22" text-anchor="middle">0ms</text>
        <line x1="240" y1="-4" x2="240" y2="4" stroke="rgba(11,19,32,0.55)"/>
        <text x="240" y="22" text-anchor="middle">80ms · server HTML reaches client</text>
        <line x1="640" y1="-4" x2="640" y2="4" stroke="rgba(11,19,32,0.55)"/>
        <text x="640" y="22" text-anchor="middle">160ms · J2clSelectedWaveSnapshotRenderer DOM visible</text>
        <line x1="1000" y1="-4" x2="1000" y2="4" stroke="rgba(11,19,32,0.55)"/>
        <text x="1000" y="22" text-anchor="middle">240ms · customElements upgrade · interactive</text>
        <line x1="1300" y1="-4" x2="1300" y2="4" stroke="rgba(11,19,32,0.55)"/>
        <text x="1300" y="22" text-anchor="middle">live updates online</text>
      </g>

      <!-- bands -->
      <rect x="0" y="-10" width="640" height="6" rx="3" fill="#22d3ee" opacity="0.40"/>
      <rect x="640" y="-10" width="660" height="6" rx="3" fill="#7c3aed" opacity="0.40"/>
    </g>

    <!-- invariants list -->
    <g transform="translate(20,108)" font-size="12" font-family="Geist, Inter, sans-serif">
      <text x="0" y="0" font-weight="700" fill="#0b1320">Acceptance · matrix R-6.1, R-6.3</text>
      <text x="0" y="22" fill="rgba(11,19,32,0.92)">• Initial HTML response contains the wave snapshot · no "Select a wave" placeholder ever flashes for valid wave param</text>
      <text x="0" y="42" fill="rgba(11,19,32,0.92)">• Hydration upgrades the same DOM nodes — no layout shift, scroll position preserved, focus state derivable from snapshot</text>
      <text x="0" y="62" fill="rgba(11,19,32,0.92)">• &lt;noscript&gt; reply form posts to /api/wavelet/&lt;id&gt;/blips so the page is functional even with JS disabled</text>
    </g>
  </g>

  <text x="40" y="884" font-size="11" fill="rgba(11,19,32,0.55)" font-family="Geist, Inter, sans-serif">J-UI-8 · matrix R-6.1, R-6.3 · components: J2clSelectedWaveSnapshotRenderer (server) → shell-root, shell-main-region, wave-blip (client) · SSR-then-upgrade</text>
</svg>
